<svg xmlns="http://www.w3.org/2000/svg" 
  xmlns:xlink="http://www.w3.org/1999/xlink" width="22px" height="22px" viewBox="0 0 22 22" version="1.1">
  <g stroke="none" stroke-width="1" fill="none" fill-rule="evenodd">
    <g>
      <rect id="Rectangle" fill="#000000" opacity="0" x="0" y="0" width="22" height="22"></rect>
      <path d="M11.75,11.4885406 L11.75,13 L12.5,13 L12.5,17.0781316 L9.5,19 L9.5,13 L10.5,13 L10.5,11 L10.5080545,11 L10.5066065,10.998552 L11.5263941,10 L4.5,10 C4.22385763,10 4,9.77614237 4,9.5 L4,4.5 C4,4.22385763 4.22385763,4 4.5,4 L17.5,4 C17.7761424,4 18,4.22385763 18,4.5 L18,9.5 C18,9.77614237 17.7761424,10 17.5,10 L13.2701966,10 L11.75,11.4885406 Z M5.25,5.25 L5.25,8.75 L16.75,8.75 L16.75,5.25 L5.25,5.25 Z" id="形状结合" fill="#5C5C5C" fill-rule="nonzero"></path>
    </g>
  </g>
</svg>