<svg class="icon" style="width: 1em; height: 1em;vertical-align: middle;fill: currentColor;overflow: hidden;" viewBox="0 0 1024 1024" version="1.1" 
  xmlns="http://www.w3.org/2000/svg" p-id="1836">
  <g id="分组" transform="translate(5.000000, 3.000000)" fill="#636363" fill-rule="nonzero">
    <path d="M816.704 292.224h-83.168V225.216c0-30.56-15.552-62.112-46.08-62.112H355.072c-30.56 0-64.256 31.552-64.256 62.112v67.04H225.792c-30.528 0-64.128 31.712-64.128 62.24v203.136c0 30.56 33.6 48.224 64.128 48.224h64.992v207.072c0 30.56 33.696 48 64.256 48h332.384c30.56 0 46.08-17.44 46.08-48v-207.104h83.168c30.56 0 46.752-17.696 46.752-48.224v-203.104c0.032-30.56-16.16-62.272-46.72-62.272M327.712 225.216c0-10.176 17.216-26.016 27.36-26.016h332.384c10.176 0 9.216 15.84 9.216 26.016v67.04h-368.96V225.216M696.64 805.856c0 10.176-8 18.944-18.176 18.944H346.048a18.784 18.784 0 0 1-18.336-18.944v-273.76c0-10.208 8.16-18.464 18.336-18.464h332.416a18.24 18.24 0 0 1 18.176 18.464v273.76m129.152-248.256c0 10.176 1.152 11.36-9.056 11.36h-83.168v-29.792c0-30.56-15.552-62.432-46.08-62.432H355.072c-30.56 0-64.256 31.872-64.256 62.432v29.792H225.792c-10.176 0-27.232-1.152-27.232-11.36v-203.104c0-10.176 17.056-25.344 27.232-25.344h590.912c10.176 0 9.056 15.168 9.056 25.344l0.032 203.104m-182.464 37.824h-258.528c-10.176 0-18.464 7.84-18.464 18.048s8.288 18.048 18.464 18.048h258.528c10.208 0 18.464-7.84 18.464-18.048s-8.288-18.048-18.464-18.048m0 106.688h-258.528a18.432 18.432 0 1 0 0 36.864h258.528a18.432 18.432 0 1 0 0-36.864m111.968-327.136z m-27.2 0a27.168 27.168 0 1 0 54.336 0 27.168 27.168 0 0 0-54.336 0" p-id="1837"></path>
  </g>
</svg>